<svg width="249" height="202" viewBox="0 0 249 202" fill="none" xmlns="http://www.w3.org/2000/svg">
<path d="M227.406 113.522C237.961 121.044 245.049 131.645 247.683 144.405C249.588 157.586 247.235 169.711 239.875 180.897C230.917 192.544 219.61 199.14 205.125 201.46C190.643 202.981 178.96 198.856 167.683 189.78C158.486 181.439 152.533 169.643 151.754 157.198C151.345 142.464 154.94 130.554 165.125 119.46C171.736 113.523 178.601 109.054 187.125 106.46C187.745 106.269 188.365 106.078 189.004 105.882C202.356 103.226 216.064 106.359 227.406 113.522ZM213.293 135.803C212.656 136.447 212.019 137.091 211.364 137.754C209.334 139.811 207.323 141.885 205.312 143.96C203.939 145.358 202.565 146.755 201.189 148.151C197.821 151.574 194.469 155.013 191.125 158.46C187.324 156.724 185.493 154.73 182.937 151.397C181.895 150.049 181.895 150.049 180.832 148.675C180.268 147.944 179.705 147.213 179.125 146.46C177.961 145.078 177.961 145.078 174.75 145.21C171.288 145.194 171.288 145.194 169.187 146.522C167.445 149.7 167.709 151.866 168.125 155.46C169.852 158.61 172.041 161.311 174.312 164.085C175.179 165.191 175.179 165.191 176.064 166.319C177.714 168.4 179.41 170.432 181.125 172.46C181.946 173.478 182.767 174.496 183.613 175.546C186.013 177.758 186.013 177.758 189.249 177.564C194.652 176.592 197.951 172.47 201.648 168.698C202.435 167.915 203.222 167.131 204.032 166.324C205.688 164.668 207.337 163.004 208.979 161.333C211.493 158.779 214.035 156.256 216.582 153.735C218.189 152.12 219.795 150.504 221.398 148.885C222.159 148.132 222.919 147.379 223.702 146.603C226.741 143.481 228.849 141.287 230.24 137.113C230.362 134.22 230.362 134.22 228 131.585C225.395 129.367 225.395 129.367 222.872 128.93C218.521 129.769 216.289 132.68 213.293 135.803Z" fill="#63A4FA"/>
<path d="M177.801 28.9276C178.411 29.168 179.022 29.4084 179.651 29.656C180.93 30.1609 182.209 30.6687 183.486 31.1791C185.447 31.9626 187.412 32.7368 189.377 33.5097C198.974 37.3074 198.974 37.3074 200.125 38.4589C200.219 40.5451 200.242 42.6345 200.239 44.7228C200.239 45.3764 200.239 46.0301 200.239 46.7035C200.238 48.8733 200.23 51.043 200.223 53.2128C200.221 54.7135 200.219 56.2142 200.218 57.715C200.215 61.6721 200.205 65.6291 200.194 69.5862C200.183 73.6212 200.179 77.6563 200.174 81.6913C200.163 89.6138 200.146 97.5364 200.125 105.459C198.805 105.648 198.805 105.648 197.459 105.841C196.298 106.013 195.137 106.185 193.941 106.361C192.794 106.529 191.646 106.696 190.463 106.869C178.788 108.933 168.298 115.718 161.188 125.209C152.922 138.418 151.019 151.611 154.148 166.737C154.33 167.625 154.513 168.513 154.701 169.428C154.841 170.098 154.981 170.768 155.125 171.459C153.295 172.154 153.295 172.154 151.428 172.864C146.862 174.6 142.296 176.338 137.73 178.075C135.761 178.824 133.793 179.573 131.824 180.321C128.979 181.403 126.134 182.485 123.289 183.568C122.422 183.898 121.555 184.227 120.662 184.566C115.488 186.537 110.354 188.58 105.248 190.721C103.125 191.459 103.125 191.459 100.125 191.459C99.795 153.839 99.465 116.219 99.125 77.4589C84.275 71.5189 84.275 71.5189 69.125 65.4589C70.125 62.4589 70.125 62.4589 71.8296 61.4845C72.5742 61.2019 73.3188 60.9192 74.0859 60.6281C74.936 60.299 75.786 59.9699 76.6618 59.6308C77.5984 59.2815 78.535 58.9321 79.5 58.5722C80.9641 58.0104 80.9641 58.0104 82.4578 57.4373C85.6764 56.2049 88.9006 54.9883 92.125 53.7714C94.3426 52.925 96.5597 52.0774 98.7764 51.2287C103.32 49.4896 107.865 47.7554 112.412 46.0243C121.531 42.5465 130.621 38.9966 139.709 35.4394C142.336 34.4117 144.963 33.3858 147.59 32.3605C149.19 31.7358 150.79 31.111 152.391 30.4862C153.464 30.0672 153.464 30.0672 154.559 29.6397C158.69 28.0256 158.69 28.0256 162.733 26.2072C167.982 24.5648 172.905 26.9904 177.801 28.9276Z" fill="#A15422"/>
<path d="M1.12442 37.459C1.45442 38.119 1.78442 38.779 2.12442 39.459C3.78275 39.8316 5.45168 40.1576 7.12442 40.459C8.9311 41.0862 10.7239 41.7544 12.5033 42.4551C13.5069 42.8489 14.5104 43.2427 15.5443 43.6484C16.5814 44.0603 17.6184 44.4721 18.6869 44.8965C19.7278 45.3045 20.7688 45.7125 21.8412 46.1328C26.0305 47.7843 30.0928 49.4432 34.1244 51.459C34.1244 62.019 34.1244 72.579 34.1244 83.459C38.8358 82.6459 38.8358 82.6459 42.0619 81.3965C45.4119 80.371 47.6393 80.093 51.1244 80.459C53.7221 82.3223 53.7221 82.3223 56.1869 84.7715C59.4919 88.0138 62.0551 90.0174 66.1244 92.459C66.4544 83.219 66.7844 73.979 67.1244 64.459C68.1144 63.964 68.1144 63.964 69.1244 63.459C69.1244 64.119 69.125 64.7789 69.125 65.4589C69.7243 65.6276 70.3231 65.7964 70.9406 65.9702C77.349 67.8264 83.5089 70.0723 89.6869 72.584C90.5873 72.9436 91.4877 73.3033 92.4154 73.6738C98.9882 76.3228 98.9882 76.3228 100.124 77.459C100.232 78.9514 100.271 80.4488 100.283 81.9451C100.292 82.9141 100.302 83.8831 100.312 84.8815C100.318 85.9532 100.324 87.0249 100.33 88.1292C100.34 89.251 100.35 90.3728 100.36 91.5286C100.391 95.2567 100.416 98.9848 100.441 102.713C100.461 105.29 100.482 107.867 100.504 110.444C100.553 116.546 100.599 122.648 100.642 128.75C100.691 135.696 100.746 142.641 100.801 149.586C100.915 163.877 101.022 178.168 101.124 192.459C99.5553 191.997 97.9868 191.533 96.4186 191.068C95.5451 190.809 94.6716 190.551 93.7716 190.285C89.6102 188.986 85.5763 187.399 81.5268 185.791C80.6301 185.439 79.7334 185.086 78.8096 184.724C75.8922 183.577 72.9771 182.424 70.0619 181.271C68.029 180.471 65.996 179.671 63.9628 178.871C60.8298 177.639 57.6968 176.406 54.5645 175.172C47.423 172.359 40.2745 169.564 33.1205 166.783C32.1741 166.415 31.2277 166.047 30.2526 165.668C26.6101 164.251 22.9676 162.835 19.3239 161.421C16.8374 160.456 14.3519 159.489 11.8666 158.521C11.1364 158.239 10.4063 157.956 9.65395 157.665C6.3951 156.395 3.23716 155.052 0.12442 153.459C0.10109 138.482 0.0834406 123.505 0.072608 108.528C0.0674452 101.575 0.0604028 94.6213 0.0489807 87.6677C0.0379732 80.9634 0.032144 74.2591 0.0295429 67.5548C0.0276881 64.9906 0.0240665 62.4264 0.0186901 59.8622C0.0114836 56.2845 0.0104291 52.7069 0.0108948 49.1292C0.0072995 48.0574 0.00370423 46.9857 0 45.8815C0.00137467 44.9125 0.00274933 43.9434 0.00416565 42.9451C0.00324386 42.098 0.00232207 41.2508 0.00137234 40.378C0.12442 38.459 0.12442 38.459 1.12442 37.459Z" fill="#BD6429"/>
<path d="M132.125 11.459C143.901 15.5283 155.539 19.8787 167.125 24.459C163.58 27.5281 159.573 28.9887 155.234 30.584C154.437 30.8836 153.641 31.1831 152.819 31.4918C151.084 32.1437 149.348 32.7929 147.611 33.4396C142.901 35.1944 138.198 36.9704 133.496 38.748C132.504 39.1227 131.513 39.4974 130.491 39.8835C116.486 45.1938 102.586 50.7729 88.6807 56.3379C87.1996 56.9284 87.1996 56.9284 85.6886 57.5309C83.8457 58.2657 82.004 59.0033 80.1636 59.7442C77.8263 60.6752 75.4802 61.5747 73.125 62.459C71.9178 62.9158 70.7106 63.3726 69.4668 63.8433C65.1821 64.6327 62.9533 63.7593 58.9492 62.0996C58.298 61.8352 57.6468 61.5707 56.9758 61.2983C54.9128 60.4543 52.8634 59.5817 50.8125 58.709C49.4167 58.1369 48.0203 57.5666 46.623 56.998C36.4868 52.8208 36.4868 52.8208 34.125 50.459C47.7043 44.9884 61.327 39.6387 74.9824 34.3613C80.3436 32.2889 85.703 30.2116 91.0625 28.1348C92.1077 27.7298 93.1529 27.3248 94.2297 26.9076C102.866 23.5609 111.5 20.2082 120.125 16.834C121.262 16.3914 122.399 15.9489 123.57 15.4929C124.578 15.0976 125.586 14.7022 126.625 14.2949C127.481 13.9602 128.337 13.6256 129.219 13.2808C131.097 12.6103 131.097 12.6103 132.125 11.459Z" fill="#E1E1E0"/>
<path d="M110.836 2.96315C111.449 3.20589 112.062 3.44863 112.694 3.69873C114.631 4.46753 116.566 5.24448 118.5 6.02174C119.821 6.54768 121.143 7.07308 122.465 7.59792C125.687 8.8788 128.907 10.1668 132.125 11.459C129.36 15.0301 125.35 16.1218 121.262 17.6194C120.458 17.9217 119.654 18.224 118.826 18.5355C117.076 19.1928 115.325 19.8465 113.572 20.497C108.844 22.2528 104.126 24.0353 99.4062 25.8147C98.4164 26.1872 97.4265 26.5596 96.4067 26.9433C84.8356 31.3053 73.3234 35.8163 61.8125 40.3342C59.8062 41.1208 57.8 41.9073 55.7937 42.6939C52.2783 44.0728 48.7632 45.4523 45.2488 46.8338C44.1583 47.2584 44.1583 47.2584 43.0457 47.6916C41.4906 48.3131 39.9576 48.9896 38.4329 49.6824C32.9155 51.5396 28.6518 50.1673 23.4141 48.053C22.4946 47.6868 22.4946 47.6868 21.5565 47.3131C19.617 46.5381 17.6836 45.749 15.75 44.9592C14.4288 44.4283 13.1072 43.8984 11.7852 43.3694C8.56069 42.0768 5.34095 40.7712 2.12442 39.459C3.12442 36.459 3.125 36.4592 4.79594 35.4983C5.52546 35.2217 6.25497 34.9451 7.00659 34.6602C7.8407 34.3375 8.6748 34.0148 9.53418 33.6823C10.4549 33.3393 11.3756 32.9963 12.3242 32.6428C13.2866 32.2737 14.249 31.9045 15.2405 31.5241C18.4272 30.3042 21.6196 29.1003 24.8125 27.8967C28.143 26.6295 31.4722 25.359 34.8012 24.088C37.0969 23.2117 39.393 22.3367 41.6896 21.4631C49.6255 18.4378 57.5238 15.3279 65.4062 12.1663C67.5134 11.325 69.6205 10.484 71.7278 9.64308C74.7571 8.43397 77.7843 7.22072 80.806 5.99291C83.5987 4.85923 86.398 3.74347 89.1992 2.63112C90.019 2.29252 90.8387 1.95393 91.6833 1.60507C99.0344 -1.27933 103.563 0.060643 110.836 2.96315Z" fill="#9A5021"/>
<path d="M223.902 129.495C227.124 130.46 227.124 130.46 229.124 132.147C230.578 135.508 230.216 136.929 229.124 140.46C226.814 143.531 224.125 146.184 221.398 148.885C220.617 149.674 219.836 150.462 219.031 151.274C217.378 152.935 215.718 154.589 214.053 156.238C211.51 158.761 208.998 161.313 206.488 163.868C204.876 165.48 203.263 167.09 201.648 168.698C200.9 169.461 200.151 170.225 199.381 171.011C193.456 176.806 193.456 176.806 189.238 177.549C186.124 177.46 186.124 177.46 183.788 175.792C183.116 174.96 182.443 174.129 181.749 173.272C181 172.354 180.251 171.436 179.48 170.491C178.703 169.49 177.925 168.49 177.124 167.46C176.268 166.427 175.41 165.395 174.55 164.366C167.446 155.533 167.446 155.533 168.124 148.46C169.187 146.522 169.187 146.522 171.124 145.46C174.374 144.772 174.374 144.772 178.124 145.46C180.863 147.826 182.965 150.568 185.124 153.46C185.929 154.45 186.733 155.44 187.562 156.46C188.335 157.45 188.335 157.45 189.124 158.46C193.406 156.832 196.114 153.582 199.175 150.323C200.36 149.093 201.545 147.865 202.732 146.637C204.591 144.704 206.444 142.765 208.28 140.81C210.06 138.921 211.865 137.058 213.675 135.198C214.217 134.608 214.759 134.019 215.317 133.411C218.292 130.397 219.592 129.454 223.902 129.495Z" fill="#EDF3F7"/>
<path d="M33.125 51.459C37.3376 52.3015 40.7385 53.3661 44.7031 54.9277C45.3152 55.1681 45.9272 55.4085 46.5578 55.6561C47.8427 56.1618 49.1268 56.6695 50.4102 57.1792C52.3808 57.9613 54.3542 58.736 56.3281 59.5098C65.984 63.318 65.9834 63.318 67.1244 64.459C67.2121 66.5316 67.232 68.6072 67.2227 70.6816C67.2194 71.9417 67.2162 73.2018 67.2129 74.5C67.2045 75.8405 67.1961 77.181 67.1875 78.5215C67.1825 79.8659 67.1779 81.2103 67.1738 82.5547C67.162 85.8562 67.1455 89.1575 67.125 92.459C63.3261 92.459 62.3532 91.0096 59.6953 88.4949C54.7041 83.5819 54.7041 83.5819 48.4453 80.8809C46.1441 81.1443 44.2718 81.5994 42.125 82.459C37.125 84.459 37.125 84.459 33.125 83.459C33.125 72.899 33.125 62.339 33.125 51.459Z" fill="#EEF1F3"/>
</svg>
